PathFileType	4	(X/Y/Z)	/Users/itak/Documents/Research/Walk-IL/dataset/trc/00056_00006.trc
DataRate	CameraRate	NumFrames	NumMarkers	Units	OrigDataRate	OrigDataStartFrame	OrigNumFrames
100.000000	100.000000	4	54	mm	100.000000	318	510
Frame#	Time	RPSI			LPSI			L3			STRN			T10			C7			CLAV			RBAK			LBAK			LSHO			LUPA			LAEL			LAOL			LWTS			LWPS			LFRA			LHPS			LHTS			RSHO			RUPA			RAEL			RAOL			RWTS			RWPS			RFRA			RIFD			RHTS			RHPS			RBHD			LFHD			RFHD			LBHD			LHIP			RHIP			RASI			LASI			LKNE			LTHI			LANK			LTIP			LTOE			LMT1			LMT5			LHEE			RKNE			RTHI			RANK			RTIP			RTOE			RMT1			RMT5			RHEE			LIFD			*53			
		X1	Y1	Z1	X2	Y2	Z2	X3	Y3	Z3	X4	Y4	Z4	X5	Y5	Z5	X6	Y6	Z6	X7	Y7	Z7	X8	Y8	Z8	X9	Y9	Z9	X10	Y10	Z10	X11	Y11	Z11	X12	Y12	Z12	X13	Y13	Z13	X14	Y14	Z14	X15	Y15	Z15	X16	Y16	Z16	X17	Y17	Z17	X18	Y18	Z18	X19	Y19	Z19	X20	Y20	Z20	X21	Y21	Z21	X22	Y22	Z22	X23	Y23	Z23	X24	Y24	Z24	X25	Y25	Z25	X26	Y26	Z26	X27	Y27	Z27	X28	Y28	Z28	X29	Y29	Z29	X30	Y30	Z30	X31	Y31	Z31	X32	Y32	Z32	X33	Y33	Z33	X34	Y34	Z34	X35	Y35	Z35	X36	Y36	Z36	X37	Y37	Z37	X38	Y38	Z38	X39	Y39	Z39	X40	Y40	Z40	X41	Y41	Z41	X42	Y42	Z42	X43	Y43	Z43	X44	Y44	Z44	X45	Y45	Z45	X46	Y46	Z46	X47	Y47	Z47	X48	Y48	Z48	X49	Y49	Z49	X50	Y50	Z50	X51	Y51	Z51	X52	Y52	Z52	X53	Y53	Z53	X54	Y54	Z54	

319	3.18	-497.7848510742188	1031.04541015625	-161.6860809326172	-506.9898071289062	1018.594909667969	-333.7560119628906	-493.5403137207031	1097.953369140625	-258.1050720214844	-209.8245544433594	1251.908447265625	-244.3048553466797	-483.1272277832031	1230.738403320312	-265.6810607910156	-384.1398010253906	1485.754028320312	-254.3678588867188	-222.8898620605469	1369.768676757812	-242.8772735595703	-473.885498046875	1356.82568359375	-190.8232269287109	-403.8050537109375	1452.919555664062	-358.7818603515625	-296.1629028320312	1442.797973632812	-422.0069580078125	-319.3128967285156	1321.543334960938	-506.9466247558594	-311.9902954101562	1103.771118164062	-531.2216796875	-386.8410339355469	1092.941528320312	-457.0318908691406	-223.4861907958984	875.3131103515625	-434.6552429199219	-272.1658935546875	854.7577514648438	-499.7211303710938	-287.7629089355469	994.0734252929688	-528.0350952148438	-236.7706756591797	776.4878540039062	-481.8876037597656	-197.1798706054688	794.9205932617188	-425.4277038574219	-342.2674560546875	1433.493408203125	-77.73023986816406	-371.6080322265625	1368.014892578125	-19.27618598937988	-448.2074279785156	1117.3759765625	19.29441833496094	-416.1736450195312	1083.685302734375	-68.86773681640625	-316.8064270019531	858.4151611328125	32.11172485351562	-397.284423828125	846.8093872070312	64.31902313232422	-445.3187866210938	1035.376831054688	36.16500473022461	-312.9416809082031	671.1231079101562	18.31648635864258	-296.3838500976562	755.8827514648438	42.09305953979492	-365.4918518066406	755.4713745117188	78.47030639648438	-295.8970642089844	1666.785888671875	-299.1512145996094	-132.0176086425781	1639.711181640625	-161.2812805175781	-118.5753021240234	1648.606811523438	-286.3807067871094	-303.0216979980469	1647.744140625	-162.7905578613281	-413.0789794921875	945.857177734375	-425.4632873535156	-432.6410827636719	961.5409545898438	-81.05361938476562	-309.1030578613281	975.1162719726562	-106.1771011352539	-299.5730285644531	950.2445068359375	-372.345947265625	-335.7804870605469	480.1828002929688	-336.9890441894531	-365.8690490722656	618.581787109375	-388.4847717285156	-528.0458984375	50.08115386962891	-335.9551696777344	-437.1532897949219	246.2315979003906	-346.5263366699219	-325.5843200683594	44.58192825317383	-337.1557312011719	-369.9195251464844	39.26885223388672	-282.6117248535156	-427.8443908691406	41.50510406494141	-378.6216125488281	-578.2005615234375	49.63403701782227	-257.7616577148438	-207.54052734375	549.1085205078125	-90.64932250976562	-304.885986328125	804.713134765625	-63.48699569702148	-314.9347229003906	62.87571716308594	-94.9617919921875	-230.2490081787109	422.1981201171875	-81.27451324462891	-99.61656951904297	70.59352111816406	-110.2949371337891	-155.9183044433594	72.99233245849609	-156.2345581054688	-193.51025390625	65.20557403564453	-65.12125396728516	-357.2583923339844	69.25995635986328	-156.6105346679688	-201.8401336669922	693.1034545898438	-394.787353515625	nan	nan	nan	
320	3.19	-504.1439819335938	1032.590087890625	-161.6211090087891	-513.1554565429688	1020.121459960938	-333.6625061035156	-500.017333984375	1099.231323242188	-258.1304626464844	-216.5841064453125	1253.836669921875	-243.6979522705078	-489.8879089355469	1232.2001953125	-265.5063781738281	-391.2542419433594	1487.276611328125	-254.1443176269531	-229.7499237060547	1371.692016601562	-242.3888549804688	-480.8290405273438	1358.252685546875	-190.5852661132812	-410.810546875	1454.401489257812	-358.4835205078125	-303.1489868164062	1444.470581054688	-421.6473388671875	-326.3832702636719	1323.242553710938	-506.6093139648438	-319.3950805664062	1105.516723632812	-530.814697265625	-393.8902587890625	1094.691040039062	-456.3407287597656	-230.7197875976562	876.8424682617188	-434.8445739746094	-279.7037353515625	856.4291381835938	-499.69384765625	-295.2266235351562	995.805419921875	-527.83056640625	-244.2920227050781	778.0872192382812	-482.1039733886719	-204.4532775878906	796.4325561523438	-425.7489624023438	-349.5005798339844	1435.379272460938	-77.40850830078125	-378.7872924804688	1369.840698242188	-18.89288711547852	-454.1572265625	1118.661865234375	19.46455574035645	-422.0444641113281	1085.222900390625	-68.70000457763672	-321.5399780273438	860.23193359375	31.81356811523438	-401.9364929199219	848.2273559570312	64.04535675048828	-450.9179382324219	1036.61474609375	36.17715454101562	-317.0634460449219	672.9281005859375	17.59013938903809	-300.7307434082031	757.7142944335938	41.55231094360352	-369.8350219726562	756.9793701171875	77.96199798583984	-303.0044860839844	1668.514038085938	-298.9249877929688	-139.0735778808594	1641.46142578125	-161.1434326171875	-125.7300567626953	1650.16259765625	-286.2605285644531	-310.0419921875	1649.645141601562	-162.5165252685547	-419.409423828125	947.3410034179688	-425.1790161132812	-439.1239013671875	963.2146606445312	-80.79645538330078	-315.6502075195312	976.55712890625	-105.8024826049805	-305.695068359375	951.8253784179688	-371.9785766601562	-340.5359802246094	481.9213562011719	-336.979736328125	-371.5765686035156	620.0694580078125	-388.3349304199219	-528.1282958984375	49.98987579345703	-336.0245056152344	-439.4026489257812	247.1741180419922	-346.5018310546875	-325.6501159667969	44.79263687133789	-336.8306884765625	-370.0637512207031	39.32409286499023	-282.48876953125	-427.9300537109375	41.75289154052734	-378.5216369628906	-578.2765502929688	49.3134765625	-257.8790283203125	-216.0867462158203	549.4503784179688	-89.95729064941406	-311.9214477539062	805.8587036132812	-63.82442092895508	-341.5722351074219	67.6136474609375	-95.21529388427734	-243.0091857910156	423.1662902832031	-80.87917327880859	-126.0702743530273	68.92117309570312	-108.9175262451172	-181.7277221679688	72.23649597167969	-155.5021667480469	-220.6382446289062	66.77753448486328	-64.50508880615234	-383.0942993164062	74.76030731201172	-157.2801208496094	-209.1660614013672	694.5248413085938	-395.230712890625	nan	nan	nan	
321	3.2	-510.2939453125	1034.1005859375	-161.4029998779297	-519.2599487304688	1021.60595703125	-333.3811645507812	-506.2974548339844	1100.4462890625	-257.9720764160156	-223.2048034667969	1255.67626953125	-243.1120758056641	-496.6263427734375	1233.572631835938	-265.2664489746094	-398.259765625	1488.727172851562	-253.8421173095703	-236.4884185791016	1373.525512695312	-241.9025573730469	-487.6355285644531	1359.577270507812	-190.2490081787109	-417.7254028320312	1455.801391601562	-358.1109313964844	-310.0742492675781	1446.0517578125	-421.2542114257812	-333.4217224121094	1324.843627929688	-506.2364501953125	-326.7740478515625	1107.151977539062	-530.4061889648438	-400.8688049316406	1096.338745117188	-455.6163940429688	-237.8506164550781	878.3470458984375	-434.9944458007812	-287.1951599121094	857.9947509765625	-499.5612182617188	-302.6732177734375	997.4247436523438	-527.591064453125	-251.6817932128906	779.6049194335938	-482.1812744140625	-211.5515594482422	797.9420776367188	-425.9928283691406	-356.5577087402344	1437.142456054688	-77.02532196044922	-385.7301025390625	1371.533569335938	-18.4460506439209	-459.9566650390625	1119.867431640625	19.81105613708496	-427.8111572265625	1086.649047851562	-68.38134002685547	-326.0950317382812	861.9778442382812	31.61112213134766	-406.4168701171875	849.5528564453125	63.87343215942383	-456.3320922851562	1037.764892578125	36.37335205078125	-320.9411010742188	674.6798706054688	16.90275955200195	-304.8780212402344	759.4844360351562	41.06615829467773	-373.9718017578125	758.393798828125	77.51043701171875	-310.093017578125	1670.154174804688	-298.6448974609375	-146.1016693115234	1643.223510742188	-160.9567260742188	-132.8611907958984	1651.73388671875	-286.0948486328125	-317.041748046875	1651.456665039062	-162.1929168701172	-425.63134765625	948.753173828125	-424.7776489257812	-445.3576965332031	964.7904663085938	-80.4434814453125	-321.9396362304688	977.8889770507812	-105.4396057128906	-311.7811584472656	953.322509765625	-371.6304626464844	-345.3042602539062	483.622314453125	-336.9315490722656	-377.2223815917969	621.5071411132812	-388.1242370605469	-528.2084350585938	49.88624954223633	-336.0949096679688	-441.6648559570312	248.1063995361328	-346.4742126464844	-325.7273864746094	45.00124740600586	-336.5077209472656	-370.2230834960938	39.38293838500977	-282.3691101074219	-428.0097961425781	41.97837066650391	-378.4190979003906	-578.3447875976562	48.9770622253418	-257.9956359863281	-224.9132232666016	549.4224243164062	-89.23263549804688	-318.8177185058594	806.8026733398438	-64.19355010986328	-368.2501525878906	72.66522979736328	-95.35859680175781	-255.9591217041016	423.9623718261719	-80.49386596679688	-152.8880615234375	67.39853668212891	-108.3122329711914	-208.0297698974609	71.81238555908203	-155.2753448486328	-247.7353057861328	68.42922210693359	-64.29483032226562	-409.2091979980469	80.75920104980469	-157.6322631835938	-216.2013549804688	695.9666748046875	-395.4957885742188	nan	nan	nan	
322	3.21	-516.2451782226562	1035.543334960938	-161.0450286865234	-525.3197631835938	1023.023193359375	-332.9190063476562	-512.3912353515625	1101.591918945312	-257.6089782714844	-229.6961212158203	1257.406005859375	-242.5589752197266	-503.3383483886719	1234.84033203125	-264.93115234375	-405.1667785644531	1490.089599609375	-253.4567565917969	-243.1216888427734	1375.248291015625	-241.426513671875	-494.3134460449219	1360.789794921875	-189.8052673339844	-424.5655212402344	1457.108276367188	-357.6636657714844	-316.9495849609375	1447.529296875	-420.8289489746094	-340.420654296875	1326.3349609375	-505.8319702148438	-334.1094360351562	1108.663208007812	-529.988037109375	-407.7902221679688	1097.873901367188	-454.86669921875	-244.8793487548828	879.8057250976562	-435.092529296875	-294.6308898925781	859.4370727539062	-499.32666015625	-310.0903015136719	998.9179077148438	-527.3115234375	-258.9424743652344	781.0230102539062	-482.1208801269531	-218.4856719970703	799.4220581054688	-426.1653747558594	-363.4347839355469	1438.759643554688	-76.58332061767578	-392.4219665527344	1373.07080078125	-17.93615531921387	-465.600341796875	1120.97216796875	20.32964897155762	-433.4797973632812	1087.954223632812	-67.92344665527344	-330.47607421875	863.6333618164062	31.49366569519043	-410.7264404296875	850.7664794921875	63.81059646606445	-461.5657653808594	1038.8125	36.75353240966797	-324.5742797851562	676.359619140625	16.26870155334473	-308.8245849609375	761.181640625	40.63421249389648	-377.8952331542969	759.7018432617188	77.13468933105469	-317.159423828125	1671.689331054688	-298.3125	-153.0947418212891	1644.964111328125	-160.72314453125	-139.9620971679688	1653.298095703125	-285.8839111328125	-324.0138244628906	1653.154418945312	-161.8217163085938	-431.7561645507812	950.0918579101562	-424.2666015625	-451.3773193359375	966.2431030273438	-79.98877716064453	-327.995361328125	979.1038818359375	-105.0700988769531	-317.8233947753906	954.7418823242188	-371.2765197753906	-350.0332946777344	485.2651977539062	-336.8430786132812	-382.71728515625	622.8807373046875	-387.8526306152344	-528.2860107421875	49.77523040771484	-336.1684265136719	-443.9035949707031	249.0160827636719	-346.4439392089844	-325.8155822753906	45.21274185180664	-336.1898193359375	-370.3921203613281	39.44083786010742	-282.2571411132812	-428.0863647460938	42.18590927124023	-378.3135986328125	-578.4022216796875	48.63751983642578	-258.1156616210938	-234.0069427490234	549.0420532226562	-88.51243591308594	-325.5977783203125	807.52099609375	-64.55049133300781	-394.8786926269531	78.00034332275391	-95.35676574707031	-269.0726928710938	424.5673522949219	-80.10877990722656	-179.9789428710938	66.04625701904297	-108.3299789428711	-234.7046051025391	71.74294281005859	-155.4097137451172	-274.7399291992188	70.18204498291016	-64.35557556152344	-435.4778442382812	87.20119476318359	-157.6664123535156	-222.9667663574219	697.4114379882812	-395.5858154296875	nan	nan	nan	
